# File created by Blade
# Date/Time:  Fri Jan 16 14:33:41 2015
# Frame Rate: 120.000 fps
#------------------------------------------------------
:FULLY-SPECIFIED
:DEGREES
1754
root 18.672314 35.802788 -23.965687 -169.830125 -11.102877 -179.935323
Spine -19.078765 -4.737378 -0.715631
Head 5.494955 -10.138349 2.098801
LeftShoulder -10.788092 -17.382041 -4.142050
LeftArm -15.813395 11.158805 -73.327264
LeftForeArm -0.475432 -0.000000 6.094073
LeftHand -1.534949 0.000000 0.636569
LeftHandThumb1 -26.253704 0.000000 33.147579
RightShoulder -10.346461 7.080199 -21.728966
RightArm 0.120550 53.782308 -5.193589
RightForeArm -32.599327 -0.000000 3.608759
RightHand 2.917780 -0.000000 6.943461
RightHandThumb1 -24.326973 -0.000000 -32.862282
LeftUpLeg -3.401225 4.090837 -0.336168
LeftLeg -5.718242 -0.000000 0.000000
LeftFoot -17.573510 22.671525 -14.793481
LeftToeBase 24.836099 -0.000000 -0.000000
RightUpLeg -2.389422 -17.976087 3.204271
RightLeg -4.142023 -0.000000 0.000000
RightFoot -21.059980 -26.274320 18.667115
RightToeBase 21.633292 -0.000000 -0.000000
1755
root 18.682871 35.802618 -23.965605 -169.813424 -11.044156 -179.930251
Spine -19.086941 -4.636573 -0.737486
Head 5.403747 -10.059520 2.127866
LeftShoulder -10.785462 -17.462817 -4.167801
LeftArm -15.853407 11.044031 -73.288061
LeftForeArm -0.378181 -0.000000 6.076400
LeftHand -1.546895 0.000000 0.620644
LeftHandThumb1 -26.253704 0.000000 33.147579
RightShoulder -10.327155 7.598052 -22.247270
RightArm 0.423055 53.716320 -5.738171
RightForeArm -32.783969 0.000000 3.778118
RightHand 2.825882 0.000000 6.621740
RightHandThumb1 -24.326973 -0.000000 -32.862282
LeftUpLeg -3.410044 4.084789 -0.317963
LeftLeg -5.728591 -0.000000 0.000000
LeftFoot -17.583888 22.722815 -14.811993
LeftToeBase 24.876438 -0.000000 -0.000000
RightUpLeg -2.418721 -17.956929 3.226825
RightLeg -4.135592 -0.000000 0.000000
RightFoot -21.051755 -26.262814 18.614358
RightToeBase 21.730948 -0.000000 -0.000000
1756
root 18.692129 35.804049 -23.966554 -169.807438 -10.978903 -179.931950
Spine -19.105295 -4.549179 -0.769546
Head 5.380137 -9.994596 2.160173
LeftShoulder -10.789642 -17.501324 -4.200288
LeftArm -15.862393 11.084071 -73.283931
LeftForeArm -0.479318 -0.000000 6.026294
LeftHand -1.505541 -0.000000 0.644973
LeftHandThumb1 -26.253704 0.000000 33.147579
RightShoulder -10.255478 8.092493 -22.699046
RightArm 0.709463 53.587160 -6.343490
RightForeArm -33.002694 -0.000000 3.896506
RightHand 2.885883 -0.000000 6.467008
RightHandThumb1 -24.326973 -0.000000 -32.862282
LeftUpLeg -3.411865 4.132600 -0.313429
LeftLeg -5.724596 -0.000000 0.000000
LeftFoot -17.568449 22.729246 -14.844596
LeftToeBase 24.818582 -0.000000 -0.000000
RightUpLeg -2.434371 -17.921589 3.236044
RightLeg -4.130484 -0.000000 0.000000
RightFoot -21.044250 -26.246301 18.623066
RightToeBase 21.701536 -0.000000 -0.000000
1757
root 18.700186 35.805646 -23.967454 -169.797067 -10.920336 -179.939262
Spine -19.150970 -4.498638 -0.792204
Head 5.411799 -9.921462 2.164720
LeftShoulder -10.795411 -17.518073 -4.240533
LeftArm -15.910733 10.918409 -73.237639
LeftForeArm -0.277477 -0.000000 6.070905
LeftHand -1.545435 0.000000 0.698427
LeftHandThumb1 -26.253704 0.000000 33.147579
RightShoulder -10.177675 8.510588 -23.156469
RightArm 1.067755 53.542849 -6.859443
RightForeArm -33.310071 -0.000000 3.970642
RightHand 3.030820 0.000000 6.723855
RightHandThumb1 -24.326973 -0.000000 -32.862282
LeftUpLeg -3.414844 4.165378 -0.316522
LeftLeg -5.726037 -0.000000 0.000000
LeftFoot -17.577238 22.747404 -14.906157
LeftToeBase 24.831060 -0.000000 -0.000000
RightUpLeg -2.451671 -17.900106 3.238507
RightLeg -4.125592 -0.000000 0.000000
RightFoot -21.058123 -26.226749 18.698970
RightToeBase 21.668018 -0.000000 -0.000000
1758
root 18.708212 35.806802 -23.968785 -169.794817 -10.855823 -179.945006
Spine -19.160424 -4.432440 -0.807472
Head 5.353385 -9.871252 2.171447
LeftShoulder -10.837079 -17.569887 -4.290670
LeftArm -15.946507 10.950705 -73.222056
LeftForeArm -0.275356 -0.000000 6.083735
LeftHand -1.561521 -0.000000 0.773350
LeftHandThumb1 -26.253704 0.000000 33.147579
RightShoulder -10.127457 8.998218 -23.636529
RightArm 1.383974 53.382429 -7.286931
RightForeArm -33.486751 -0.000000 4.274850
RightHand 2.913928 0.000000 6.543042
RightHandThumb1 -24.326973 -0.000000 -32.862282
LeftUpLeg -3.405735 4.229455 -0.319911
LeftLeg -5.733405 -0.000000 0.000000
LeftFoot -17.567170 22.744757 -14.934012
LeftToeBase 24.862279 -0.000000 -0.000000
RightUpLeg -2.465334 -17.885427 3.243244
RightLeg -4.118934 -0.000000 0.000000
RightFoot -21.035221 -26.181117 18.621330
RightToeBase 21.692299 -0.000000 -0.000000
1759
root 18.715263 35.808130 -23.970101 -169.794793 -10.799418 -179.947030
Spine -19.171530 -4.336476 -0.829385
Head 5.348681 -9.845139 2.138418
LeftShoulder -10.831875 -17.623585 -4.351899
LeftArm -15.972393 10.942687 -73.195447
LeftForeArm -0.333624 -0.000000 6.059484
LeftHand -1.580099 0.000000 0.794690
LeftHandThumb1 -26.253704 0.000000 33.147579
RightShoulder -10.130602 9.485031 -24.145886
RightArm 1.788536 52.974799 -7.628761
RightForeArm -33.705097 -0.000000 4.406602
RightHand 2.898034 -0.000000 6.327889
RightHandThumb1 -24.326973 -0.000000 -32.862282
LeftUpLeg -3.391385 4.264124 -0.317425
LeftLeg -5.745937 -0.000000 0.000000
LeftFoot -17.563762 22.750410 -14.982879
LeftToeBase 24.812375 -0.000000 -0.000000
RightUpLeg -2.474129 -17.873253 3.248084
RightLeg -4.116178 -0.000000 0.000000
RightFoot -21.013535 -26.156616 18.598564
RightToeBase 21.748671 -0.000000 -0.000000
1760
root 18.721860 35.808901 -23.971337 -169.786207 -10.753360 -179.952402
Spine -19.191102 -4.267953 -0.845039
Head 5.314443 -9.811340 2.123351
LeftShoulder -10.846049 -17.697033 -4.402448
LeftArm -16.028479 10.866282 -73.159152
LeftForeArm -0.259976 0.000000 6.054959
LeftHand -1.573832 -0.000000 0.842921
LeftHandThumb1 -26.253704 0.000000 33.147579
RightShoulder -10.100502 9.879233 -24.576302
RightArm 2.182865 52.695790 -8.059115
RightForeArm -33.975642 0.000000 4.517824
RightHand 2.873697 -0.000000 6.280962
RightHandThumb1 -24.326973 -0.000000 -32.862282
LeftUpLeg -3.392285 4.299673 -0.319911
LeftLeg -5.749953 -0.000000 0.000000
LeftFoot -17.561808 22.750247 -15.025787
LeftToeBase 24.813704 -0.000000 -0.000000
RightUpLeg -2.490040 -17.866422 3.253071
RightLeg -4.108783 -0.000000 0.000000
RightFoot -21.005113 -26.132171 18.587955
RightToeBase 21.712165 -0.000000 -0.000000
